<svg width="48" height="48" viewBox="0 0 48 48" fill="none" xmlns="http://www.w3.org/2000/svg">
<rect x="0.5" y="0.5" width="47" height="47" rx="11.5" fill="#FC1414"/>
<rect x="0.5" y="0.5" width="47" height="47" rx="11.5" stroke="#FC1414"/>
<path d="M33 15C33.552 15 34 15.448 34 16V30C34 30.552 33.552 31 33 31H18.455L14 34.5V16C14 15.448 14.448 15 15 15H33ZM22.962 20.1L22.515 19.412C20.728 20.187 19.5 21.755 19.5 23.505C19.5 24.5 19.777 25.114 20.292 25.661C20.616 26.005 21.129 26.25 21.666 26.25C22.632 26.25 23.416 25.466 23.416 24.5C23.416 23.58 22.705 22.839 21.802 22.755C21.642 22.74 21.478 22.743 21.323 22.765V22.673C21.329 22.251 21.415 21.04 22.777 20.207L22.962 20.1ZM27.515 19.412C25.728 20.187 24.5 21.755 24.5 23.505C24.5 24.5 24.777 25.114 25.292 25.661C25.616 26.005 26.129 26.25 26.666 26.25C27.632 26.25 28.416 25.466 28.416 24.5C28.416 23.58 27.705 22.839 26.802 22.755C26.642 22.74 26.478 22.743 26.323 22.765C26.323 22.452 26.294 21.003 27.962 20.1L27.515 19.412Z" fill="white"/>
</svg>
