<svg width="46" height="46" viewBox="0 0 46 46" fill="none" xmlns="http://www.w3.org/2000/svg">
<rect width="46" height="46" rx="23" fill="#FC1414"/>
<g clip-path="url(#clip0_336_222)">
<path d="M14.4388 27.5665C13.7536 26.1346 13.4062 24.5983 13.4062 23C13.4062 17.1586 18.1586 12.4062 24 12.4062C26.3208 12.4062 28.5273 13.148 30.3499 14.5184L28.5964 14.7492C28.2114 14.7999 27.9404 15.1531 27.991 15.5381C28.0417 15.9231 28.3949 16.1941 28.7799 16.1435L32.0798 15.709C32.4648 15.6583 32.7359 15.3051 32.6852 14.9202L32.2507 11.6202C32.2 11.2353 31.8468 10.9642 31.4618 11.0149H31.4618C31.0768 11.0656 30.8058 11.4188 30.8565 11.8038L31.0519 13.2884C29.0151 11.8028 26.5694 11 24 11C20.7947 11 17.7812 12.2482 15.5147 14.5147C13.2482 16.7812 12 19.7947 12 23C12 24.81 12.3937 26.5506 13.1704 28.1735C13.338 28.5238 13.7578 28.6719 14.1081 28.5042C14.4584 28.3366 14.6064 27.9168 14.4388 27.5665Z" fill="white"/>
<path d="M30.5035 21.9514L30.855 21.7485C31.1913 21.5543 31.3066 21.1243 31.1124 20.788L29.4717 17.9464C29.2776 17.6101 28.8476 17.4948 28.5113 17.689L28.1598 17.892C27.3526 18.358 26.3436 17.7755 26.3436 16.8434V16.4375C26.3436 16.0492 26.0288 15.7344 25.6405 15.7344H22.3592C21.9709 15.7344 21.6561 16.0492 21.6561 16.4375V16.8434C21.6561 17.7755 20.6471 18.358 19.8399 17.892L19.4884 17.689C19.1521 17.4949 18.7221 17.6101 18.5279 17.9464L16.8873 20.788C16.6931 21.1243 16.8084 21.5543 17.1446 21.7485L17.4962 21.9514C18.3034 22.4174 18.3034 23.5825 17.4962 24.0485L17.1446 24.2515C16.8084 24.4456 16.6931 24.8757 16.8873 25.2119L18.5279 28.0536C18.7221 28.3899 19.1521 28.5051 19.4884 28.3109L19.8399 28.108C20.6471 27.6419 21.6561 28.2245 21.6561 29.1566V29.5625C21.6561 29.9508 21.9709 30.2656 22.3592 30.2656H25.6405C26.0288 30.2656 26.3436 29.9508 26.3436 29.5625V29.1566C26.3436 28.2245 27.3526 27.642 28.1598 28.108L28.5113 28.311C28.8476 28.5051 29.2776 28.3899 29.4717 28.0536L31.1124 25.212C31.3065 24.8757 31.1913 24.4457 30.855 24.2515L30.5035 24.0486C29.6963 23.5826 29.6963 22.4174 30.5035 21.9514ZM23.9998 25.6953C22.5113 25.6953 21.3045 24.4886 21.3045 23C21.3045 21.5114 22.5113 20.3047 23.9998 20.3047C25.4884 20.3047 26.6951 21.5114 26.6951 23C26.6951 24.4886 25.4884 25.6953 23.9998 25.6953Z" fill="white"/>
<path d="M34.8295 17.8266C34.6619 17.4763 34.2421 17.3282 33.8918 17.4958C33.5415 17.6634 33.3934 18.0832 33.561 18.4335C34.2462 19.8654 34.5936 21.4018 34.5936 23.0001C34.5936 28.8415 29.8413 33.5938 23.9999 33.5938C21.6791 33.5938 19.4725 32.8521 17.65 31.4817L19.4035 31.2508C19.7885 31.2001 20.0595 30.8469 20.0088 30.4619C19.9582 30.0769 19.605 29.8059 19.22 29.8566L15.92 30.291C15.535 30.3417 15.264 30.6949 15.3147 31.0799L15.7492 34.3798C15.7998 34.7648 16.153 35.0358 16.538 34.9851C16.923 34.9345 17.1941 34.5813 17.1434 34.1963L16.948 32.7116C18.9848 34.1973 21.4305 35 23.9999 35C27.2052 35 30.2186 33.7519 32.4852 31.4854C34.7516 29.2188 35.9999 26.2054 35.9999 23.0001C35.9999 21.19 35.6061 19.4494 34.8295 17.8266Z" fill="white"/>
</g>
<defs>
<clipPath id="clip0_336_222">
<rect width="24" height="24" fill="white" transform="translate(12 11)"/>
</clipPath>
</defs>
</svg>
